[Header]
FileType HTR
DataType HTRS
FileVersion 1
NumSegments 48
NumFrames 3
DataFrameRate 30
EulerRotationOrder ZYX
CalibrationUnits mm
RotationUnits Degrees
GlobalAxisofGravity Y
BoneLengthAxis Y
ScaleFactor 1.0
[SegmentNames&Hierarchy]
Wolf	GLOBAL
Becken	Wolf
Bauch	Becken
Bauch_001	Bauch
Brust	Bauch_001
Hals	Brust
Kopf_002	Hals
Kopf	Kopf_002
Unterkiefer	Kopf
Hals_fett	Unterkiefer
Maulunten	Unterkiefer
Mauloben	Kopf
MundW_L	Kopf
MundW_R	Kopf
Augen_con	Kopf
IK_Aug_R	Augen_con
IK_Aug_L	Augen_con
Aug_R	Kopf
aug_L	Kopf
Ohr_L	Kopf
Ohr_R	Kopf
Braun_O_L	Kopf
Braun_O_R	Kopf
aug_lied_O_L	Kopf
aug_lied_O_R	Kopf
aug_lied_U_L	Kopf
aug_lied_U_R	Kopf
Bauch_003	Brust
Schalterplatte_L	Bauch_003
Oberarm_L	Schalterplatte_L
Unterarm_L	Oberarm_L
Vorderpfote_L	Unterarm_L
Schalterplatte_R	Bauch_003
Oberarm_R	Schalterplatte_R
Unterarm_R	Oberarm_R
Vorderpfote_R	Unterarm_R
Schwanz	Becken
Schwanz_001	Schwanz
Schwanz_002	Schwanz_001
Schwanz_003	Schwanz_002
Oberschenkel_L	Becken
Unterschenkel_L	Oberschenkel_L
Pfote1_L	Unterschenkel_L
Pfote2_L	Pfote1_L
Oberschenkel_R	Becken
Unterschenkel_R	Oberschenkel_R
Pfote1_R	Unterschenkel_R
Pfote2_R	Pfote1_R
[BasePosition]
Wolf	0	0	0	0	0	0	1
Becken	0	0	0	0	0	0	1
Bauch	0	0	0	0	0	0	1
Bauch_001	0	0	0	0	0	0	1
Brust	0	0	0	0	0	0	1
Hals	0	0	0	0	0	0	1
Kopf_002	0	0	0	0	0	0	1
Kopf	0	0	0	0	0	0	1
Unterkiefer	0	0	0	0	0	0	1
Hals_fett	0	0	0	0	0	0	1
Maulunten	0	0	0	0	0	0	1
Mauloben	0	0	0	0	0	0	1
MundW_L	0	0	0	0	0	0	1
MundW_R	0	0	0	0	0	0	1
Augen_con	0	0	0	0	0	0	1
IK_Aug_R	0	0	0	0	0	0	1
IK_Aug_L	0	0	0	0	0	0	1
Aug_R	0	0	0	0	0	0	1
aug_L	0	0	0	0	0	0	1
Ohr_L	0	0	0	0	0	0	1
Ohr_R	0	0	0	0	0	0	1
Braun_O_L	0	0	0	0	0	0	1
Braun_O_R	0	0	0	0	0	0	1
aug_lied_O_L	0	0	0	0	0	0	1
aug_lied_O_R	0	0	0	0	0	0	1
aug_lied_U_L	0	0	0	0	0	0	1
aug_lied_U_R	0	0	0	0	0	0	1
Bauch_003	0	0	0	0	0	0	1
Schalterplatte_L	0	0	0	0	0	0	1
Oberarm_L	0	0	0	0	0	0	1
Unterarm_L	0	0	0	0	0	0	1
Vorderpfote_L	0	0	0	0	0	0	1
Schalterplatte_R	0	0	0	0	0	0	1
Oberarm_R	0	0	0	0	0	0	1
Unterarm_R	0	0	0	0	0	0	1
Vorderpfote_R	0	0	0	0	0	0	1
Schwanz	0	0	0	0	0	0	1
Schwanz_001	0	0	0	0	0	0	1
Schwanz_002	0	0	0	0	0	0	1
Schwanz_003	0	0	0	0	0	0	1
Oberschenkel_L	0	0	0	0	0	0	1
Unterschenkel_L	0	0	0	0	0	0	1
Pfote1_L	0	0	0	0	0	0	1
Pfote2_L	0	0	0	0	0	0	1
Oberschenkel_R	0	0	0	0	0	0	1
Unterschenkel_R	0	0	0	0	0	0	1
Pfote1_R	0	0	0	0	0	0	1
Pfote2_R	0	0	0	0	0	0	1
[Wolf]
43	0	0	0	-90	-0	0	1.0
44	0	0	0	-90	-0	0	1.0
45	0	0	0	-90	-0	0	1.0
[Becken]
43	0	0.5621799231	0.5007561445	-1.286545038	169.3825531	89.53747559	1.0
44	0	0.5621799231	0.4875161648	-1.477916121	169.3841705	89.46868134	1.0
45	0	0.5621799231	0.4735881388	-1.64336729	169.3857422	89.40921021	1.0
[Bauch]
43	0.9404072165	7.335228958e-08	-0.3559131622	-9.70548399e-07	12.60522652	-8.885302805e-08	1.0
44	0.9404072165	7.335228958e-08	-0.3559131622	-9.70548399e-07	12.60522652	-8.885302805e-08	1.0
45	0.9404072165	7.335228958e-08	-0.3559131622	-9.70548399e-07	12.60522652	-8.885302805e-08	1.0
[Bauch_001]
43	1.081897616	8.323696221e-08	1.180524034e-08	-2.503413032e-09	2.360082865	-2.670307531e-08	1.0
44	1.081897616	8.323696221e-08	1.180524034e-08	-2.503413032e-09	2.360082865	-2.670307531e-08	1.0
45	1.081897616	8.323696221e-08	1.180524034e-08	-2.503413032e-09	2.360082865	-2.670307531e-08	1.0
[Brust]
43	1.069831252	8.440110832e-08	3.139576066e-08	5.110827715e-06	14.0225668	-3.549572648e-05	1.0
44	1.069831252	8.440110832e-08	3.139576066e-08	5.110827715e-06	13.48980045	-3.549572648e-05	1.0
45	1.069831252	8.440110832e-08	3.139576066e-08	5.110827715e-06	12.92766476	-3.549572648e-05	1.0
[Hals]
43	1.258022308	9.662471712e-08	0.6079561114	-4.810633527e-06	46.87745667	-2.341890877e-06	1.0
44	1.258022308	9.662471712e-08	0.6079561114	-4.810633527e-06	46.87745667	-2.341890877e-06	1.0
45	1.258022308	9.662471712e-08	0.6079561114	-4.810633527e-06	46.87745667	-2.341890877e-06	1.0
[Kopf_002]
43	1.752595186	3.012712114e-05	0.265181601	0.006653386634	-165.1497192	0.002557684667	1.0
44	1.752595186	3.012712114e-05	0.265181601	0.006653386634	-165.1497192	0.002557684667	1.0
45	1.752595186	3.012712114e-05	0.265181601	0.006653386634	-165.1497192	0.002557684667	1.0
[Kopf]
43	1.015782118	6.868503988e-08	-5.515175872e-08	0.06216678023	116.7077942	-0.03175475076	1.0
44	1.015782118	6.868503988e-08	-5.515175872e-08	0.06340652704	117.773735	-0.03064693511	1.0
45	1.015782118	6.868503988e-08	-5.515175872e-08	0.06461980194	118.8984985	-0.02957056277	1.0
[Unterkiefer]
43	0.6370447874	0.004552732222	0.4060618579	5.412721634	-68.3888092	-3.093543291	1.0
44	0.6370447874	0.004552732222	0.4060618579	5.412721634	-68.3888092	-3.093543291	1.0
45	0.6370447874	0.004552732222	0.4060618579	5.412721634	-68.3888092	-3.093543291	1.0
[Hals_fett]
43	0.2998305857	0.007747137919	0.1206372604	-5.071650982	-59.35961151	5.585564613	1.0
44	0.2998305857	0.007747137919	0.1206372604	-5.071650982	-59.35961151	5.585564613	1.0
45	0.2998305857	0.007747137919	0.1206372604	-5.071650982	-59.35961151	5.585564613	1.0
[Maulunten]
43	0.0831861794	-0.007747565862	-0.1206544712	-3.322209358	38.97271347	-0.8718761206	1.0
44	0.0831861794	-0.007747565862	-0.1206544712	-3.322209358	38.97271347	-0.8718761206	1.0
45	0.0831861794	-0.007747565862	-0.1206544712	-3.322209358	38.97271347	-0.8718761206	1.0
[Mauloben]
43	0.9101490974	0.0004056713078	0.4003697634	-0.1032672822	-28.7776947	0.03543138877	1.0
44	0.9101490974	0.0004056713078	0.4003697634	-0.1032672822	-28.7776947	0.03543138877	1.0
45	0.9101490974	0.0004056713078	0.4003697634	-0.1032672822	-28.7776947	0.03543138877	1.0
[MundW_L]
43	0.673060894	-0.3618555963	0.3751283586	-179.8370972	-17.94885063	24.713974	1.0
44	0.673060894	-0.3618555963	0.3751283586	-179.8370972	-17.94885063	24.713974	1.0
45	0.673060894	-0.3618555963	0.3751283586	-179.8370972	-17.94885063	24.713974	1.0
[MundW_R]
43	0.6732419133	0.3627035022	0.3739836514	179.665329	-18.02427101	-24.69083595	1.0
44	0.6732419133	0.3627035022	0.3739836514	179.665329	-18.02427101	-24.69083595	1.0
45	0.6732419133	0.3627035022	0.3739836514	179.665329	-18.02427101	-24.69083595	1.0
[Augen_con]
43	1.807373166	-0.0001604110003	0.183581531	0.0982221961	157.1545258	0.02385941334	1.0
44	1.807373166	-0.0001604110003	0.183581531	0.0982221961	157.1545258	0.02385941334	1.0
45	1.807373166	-0.0001604110003	0.183581531	0.0982221961	157.1545258	0.02385941334	1.0
[IK_Aug_R]
43	0.3461295962	0.2943200469	-1.071020961e-07	-0.4194760025	-4.963055134	165.6946411	1.0
44	0.3461295962	0.2943200469	-1.071020961e-07	-0.4194760025	-4.963055134	165.6946411	1.0
45	0.3461295962	0.2943200469	-1.071020961e-07	-0.4194760025	-4.963055134	165.6946411	1.0
[IK_Aug_L]
43	0.3461301029	-0.2943200171	-1.967418939e-07	0.4194771945	-4.963055134	-165.6946411	1.0
44	0.3461301029	-0.2943200171	-1.967418939e-07	0.4194771945	-4.963055134	-165.6946411	1.0
45	0.3461301029	-0.2943200171	-1.967418939e-07	0.4194771945	-4.963055134	-165.6946411	1.0
[Aug_R]
43	1.035154939	0.2207805216	-0.09605780989	176.004776	-17.29167175	12.85548782	1.0
44	1.035154939	0.2207805216	-0.09605780989	176.004776	-17.29167175	12.85548782	1.0
45	1.035154939	0.2207805216	-0.09605780989	176.004776	-17.29167175	12.85548782	1.0
[aug_L]
43	1.03504467	-0.2215988934	-0.09535907209	-176.1891022	-17.33180046	-12.83102131	1.0
44	1.03504467	-0.2215988934	-0.09535907209	-176.1891022	-17.33180046	-12.83102131	1.0
45	1.03504467	-0.2215988934	-0.09535907209	-176.1891022	-17.33180046	-12.83102131	1.0
[Ohr_L]
43	0.6407766938	-0.3659991026	-0.6893324852	-24.34923935	53.07765961	-15.02013397	1.0
44	0.6407766938	-0.3659991026	-0.6893324852	-24.34923935	53.07765961	-15.02013397	1.0
45	0.6407766938	-0.3659991026	-0.6893324852	-24.34923935	53.07765961	-15.02013397	1.0
[Ohr_R]
43	0.640958488	0.36349985	-0.690484941	24.05785561	53.12415695	14.75856686	1.0
44	0.640958488	0.36349985	-0.690484941	24.05785561	53.12415695	14.75856686	1.0
45	0.640958488	0.36349985	-0.690484941	24.05785561	53.12415695	14.75856686	1.0
[Braun_O_L]
43	0.9801894426	-0.3706049323	-0.3292509615	-143.317215	-34.69636154	52.39493942	1.0
44	0.9801894426	-0.3706049323	-0.3292509615	-143.317215	-34.69636154	52.39493942	1.0
45	0.9801894426	-0.3706049323	-0.3292509615	-143.317215	-34.69636154	52.39493942	1.0
[Braun_O_R]
43	0.9803640842	0.3690741956	-0.3304226995	143.1826782	-34.83971405	-52.34676361	1.0
44	0.9803640842	0.3690741956	-0.3304226995	143.1826782	-34.83971405	-52.34676361	1.0
45	0.9803640842	0.3690741956	-0.3304226995	143.1826782	-34.83971405	-52.34676361	1.0
[aug_lied_O_L]
43	1.038882375	-0.3271433413	-0.1608109176	-175.8613434	-20.15596771	60.31667709	1.0
44	1.038882375	-0.3271433413	-0.1608109176	-175.8613434	-20.15596771	60.31667709	1.0
45	1.038882375	-0.3271433413	-0.1608109176	-175.8613434	-20.15596771	60.31667709	1.0
[aug_lied_O_R]
43	1.039044976	0.326115787	-0.1618431658	175.7657928	-20.31324005	-60.31218338	1.0
44	1.039044976	0.326115787	-0.1618431658	175.7657928	-20.31324005	-60.31218338	1.0
45	1.039044976	0.326115787	-0.1618431658	175.7657928	-20.31324005	-60.31218338	1.0
[aug_lied_U_L]
43	1.02191329	-0.3312865198	-0.1338392347	-159.8099365	-28.7482872	60.17462158	1.0
44	1.02191329	-0.3312865198	-0.1338392347	-159.8099365	-28.7482872	60.17462158	1.0
45	1.02191329	-0.3312865198	-0.1338392347	-159.8099365	-28.7482872	60.17462158	1.0
[aug_lied_U_R]
43	1.022078872	0.3303525448	-0.1348842829	159.7071381	-28.90532303	-60.15359116	1.0
44	1.022078872	0.3303525448	-0.1348842829	159.7071381	-28.90532303	-60.15359116	1.0
45	1.022078872	0.3303525448	-0.1348842829	159.7071381	-28.90532303	-60.15359116	1.0
[Bauch_003]
43	1.276869178	9.429641068e-08	-0.6079563498	-3.842957085e-06	-137.6799469	1.008550771e-05	1.0
44	1.276869178	9.429641068e-08	-0.6079563498	-3.842957085e-06	-137.6799469	1.008550771e-05	1.0
45	1.276869178	9.429641068e-08	-0.6079563498	-3.842957085e-06	-137.6799469	1.008550771e-05	1.0
[Schalterplatte_L]
43	0.9307767153	-0.3811268508	-0.05559764802	-92.11093903	75.47698975	-120.716156	1.0
44	0.9393607974	-0.3808221221	-0.06526681781	-91.8243103	75.76078796	-120.3104858	1.0
45	0.9479448795	-0.3805173934	-0.07493599504	-88.17855835	76.56201172	-116.4825516	1.0
[Oberarm_L]
43	1.418636799	1.443549991e-07	9.778887033e-08	-74.19290161	-64.94905853	89.64846802	1.0
44	1.418636799	1.443549991e-07	9.778887033e-08	-69.35723114	-64.25922394	83.87514496	1.0
45	1.418636799	1.443549991e-07	9.778887033e-08	-64.37714386	-63.20274353	77.83172607	1.0
[Unterarm_L]
43	2.028227329	8.847563748e-08	-3.725290298e-07	9.436820984	64.32587433	11.66325092	1.0
44	2.028227329	8.847563748e-08	-3.725290298e-07	8.109339714	63.72972107	9.945196152	1.0
45	2.028227329	8.847563748e-08	-3.725290298e-07	6.574362755	62.75162506	7.811443329	1.0
[Vorderpfote_L]
43	1.705947638	1.746229827e-07	-5.704351125e-08	-33.75523758	-13.50298405	0.1978438348	1.0
44	1.705947638	1.746229827e-07	-5.704351125e-08	-32.68266296	-10.63259125	-0.5867361426	1.0
45	1.705947638	1.746229827e-07	-5.704351125e-08	-29.51966667	-2.599855661	-2.484295607	1.0
[Schalterplatte_R]
43	0.9664037228	0.3929800391	0.08585447073	3.629384756	66.4276123	30.49238586	1.0
44	0.9922510982	0.3951711655	0.1035165936	3.841108322	66.65724945	30.75559044	1.0
45	1.019828558	0.3973622918	0.1211787164	4.122815609	66.95561981	31.10467529	1.0
[Oberarm_R]
43	1.418636322	-1.210719205e-07	-7.450580597e-08	56.64902115	-57.10756683	-67.54768372	1.0
44	1.418636322	-1.210719205e-07	-7.450580597e-08	58.28019714	-57.50165176	-69.60049438	1.0
45	1.418636322	-1.210719205e-07	-7.450580597e-08	59.95056152	-57.8766861	-71.68572998	1.0
[Unterarm_R]
43	2.028231859	1.676380634e-07	-3.608874977e-07	-1.451932192	41.06204605	-1.468355536	1.0
44	2.028231859	1.676380634e-07	-3.608874977e-07	-1.632517457	41.96950531	-1.666696548	1.0
45	2.028231859	1.676380634e-07	-3.608874977e-07	-1.815789223	42.94183731	-1.865470648	1.0
[Vorderpfote_R]
43	1.705937624	7.799826562e-08	1.461012289e-07	4.020214558	82.62002563	3.640275478	1.0
44	1.705937624	7.799826562e-08	1.461012289e-07	4.142032146	83.38974762	3.765572071	1.0
45	1.705937624	7.799826562e-08	1.461012289e-07	4.32741785	84.19208527	3.954857349	1.0
[Schwanz]
43	-0.1176031604	-1.382431947e-08	0.07601666451	-2.220226997e-05	-117.7080307	2.181978562e-05	1.0
44	-0.1266890466	-1.382431947e-08	0.08095154166	-2.220226997e-05	-116.6903076	2.181978562e-05	1.0
45	-0.1357749254	-1.382431947e-08	0.08588641882	-2.220226997e-05	-115.6164322	2.181978562e-05	1.0
[Schwanz_001]
43	0.9104328156	6.868503988e-08	7.788912626e-08	-2.408194405e-06	12.84380627	-5.75290926e-07	1.0
44	0.9104328156	6.868503988e-08	7.788912626e-08	-2.408194405e-06	11.45583439	-5.75290926e-07	1.0
45	0.9104328156	6.868503988e-08	7.788912626e-08	-2.408194405e-06	9.991196632	-5.75290926e-07	1.0
[Schwanz_002]
43	0.7855660319	5.704351125e-08	-1.185253495e-07	8.174235973e-07	-5.570281982	-1.362372615e-07	1.0
44	0.7855660319	5.704351125e-08	-1.185253495e-07	8.174235973e-07	-6.573859692	-1.362372615e-07	1.0
45	0.7855660319	5.704351125e-08	-1.185253495e-07	8.174235973e-07	-7.632804871	-1.362372615e-07	1.0
[Schwanz_003]
43	0.8350355029	6.286426668e-08	-2.072192729e-07	-2.187832479e-06	-3.581922531	1.867661581e-07	1.0
44	0.8350355029	6.286426668e-08	-2.072192729e-07	-2.187832479e-06	-3.051181078	1.867661581e-07	1.0
45	0.8350355029	6.286426668e-08	-2.072192729e-07	-2.187832479e-06	-2.491182327	1.867661581e-07	1.0
[Oberschenkel_L]
43	0.6194099188	-0.5836999416	0.09732771665	-101.0476532	-95.36534119	105.2424774	1.0
44	0.5839874744	-0.5836999416	0.1027729362	-97.4953537	-95.28113556	101.6747437	1.0
45	0.5496051311	-0.5836999416	0.1079601049	-94.30413055	-95.22766113	98.47007751	1.0
[Unterschenkel_L]
43	1.686439037	6.984918599e-08	-6.053597446e-08	-10.3372345	-31.6300621	16.32339478	1.0
44	1.686439037	6.984918599e-08	-6.053597446e-08	-10.68634892	-33.74155807	16.39241791	1.0
45	1.686439037	6.984918599e-08	-6.053597446e-08	-11.03720093	-35.71102905	16.49593163	1.0
[Pfote1_L]
43	1.190900326	6.519258022e-08	1.396983862e-07	2.501657724	26.96895027	-5.428822994	1.0
44	1.190900326	6.519258022e-08	1.396983862e-07	2.517414808	26.55786324	-5.393651009	1.0
45	1.190900326	6.519258022e-08	1.396983862e-07	2.54380393	25.85179901	-5.333740234	1.0
[Pfote2_L]
43	0.9876257777	7.450580597e-08	-5.587935092e-08	-86.04343414	88.08905029	-90.76491547	1.0
44	0.9876257777	7.450580597e-08	-5.587935092e-08	-43.51360321	87.20389557	-48.10247803	1.0
45	0.9876257777	7.450580597e-08	-5.587935092e-08	-23.21560478	85.35378265	-27.6938858	1.0
[Oberschenkel_R]
43	0.6114567518	0.5837000012	-0.03254852816	-12.2460413	-48.26128006	6.160181999	1.0
44	0.6339433789	0.5837000012	-0.01479900256	-12.36902046	-49.04229736	6.323654175	1.0
45	0.656430006	0.5837000012	0.00422333926	-12.53670788	-50.06083679	6.543895721	1.0
[Unterschenkel_R]
43	1.68644917	1.164153218e-07	2.793967901e-08	39.03913116	-66.72843933	-49.4599762	1.0
44	1.68644917	1.164153218e-07	2.793967901e-08	34.55726624	-64.13526917	-45.0349884	1.0
45	1.68644917	1.164153218e-07	2.793967901e-08	30.44388199	-61.13583755	-40.94701004	1.0
[Pfote1_R]
43	1.190900087	1.856824383e-07	4.190951941e-08	-2.402745485	37.08021164	5.673678875	1.0
44	1.190900087	1.856824383e-07	4.190951941e-08	-2.423868179	37.48034286	5.638739109	1.0
45	1.190900087	1.856824383e-07	4.190951941e-08	-2.435312748	37.69379807	5.619942188	1.0
[Pfote2_R]
43	0.9876258373	6.984919754e-09	6.635672634e-08	39.48150635	82.67809296	46.67354965	1.0
44	0.9876258373	6.984919754e-09	6.635672634e-08	33.5841713	82.33908081	40.88971329	1.0
45	0.9876258373	6.984919754e-09	6.635672634e-08	28.02358246	81.970047	35.41327667	1.0
[EndOfFile]
